<svg width="24" height="38" viewBox="0 0 24 38" fill="none" xmlns="http://www.w3.org/2000/svg">
<path d="M4.37124 27.3433C4.28069 23.3594 7.51047 19.6788 11.8671 19.6586C16.1534 19.6384 19.5542 23.2684 19.4335 27.6163C19.3228 31.4283 16.1031 35.2605 11.4647 35.028C7.65133 34.8358 4.28069 31.4789 4.37124 27.3433ZM16.1333 27.3534C16.1433 25.0177 14.3423 23.1268 12.0986 23.0257C9.52279 22.9044 7.68152 25.0682 7.65133 27.2725C7.62115 29.5981 9.40205 31.6305 11.7967 31.6912C14.1914 31.7418 16.1132 29.7903 16.1333 27.3534Z" fill="black"/>
<path d="M12.2898 37.6468C12.5514 37.1008 12.7627 36.6154 13.0042 36.1503C13.0444 36.0694 13.1652 36.0088 13.2557 35.9986C17.1596 35.2706 19.997 32.2675 20.4296 28.3039C20.7214 25.6345 19.9165 23.2886 18.0954 21.3169C17.9545 21.1652 17.9142 21.0338 17.9444 20.8315C18.357 18.5464 18.6085 16.241 18.6588 13.9052C18.7594 9.78989 18.2161 5.76555 16.9483 1.85243C16.8578 1.57943 16.7672 1.30642 16.737 0.992966C16.8175 1.09408 16.898 1.20531 16.9785 1.30642C18.6286 3.61182 19.7253 6.19023 20.5906 8.87986C21.6773 12.2672 22.3313 15.7455 22.7438 19.2845C23.0155 21.6303 23.1765 23.9762 23.1664 26.3321C23.1664 31.8732 19.021 36.7064 13.5576 37.5154C13.1652 37.5659 12.7526 37.5962 12.2898 37.6468Z" fill="black"/>
<path d="M12.2093 7.60583C13.4469 8.97087 14.6744 10.3258 15.9019 11.6807C16.3949 12.2267 16.898 12.7626 17.381 13.3188C17.4715 13.4199 17.552 13.5614 17.552 13.6828C17.5621 15.5534 17.4011 17.4038 17.1194 19.3351C14.5034 16.4533 11.9376 13.612 9.35181 10.7707C10.3077 9.71911 11.2434 8.67764 12.2093 7.60583Z" fill="black"/>
<path d="M11.7565 36.1503C11.5452 36.5851 11.3439 37.03 11.1226 37.4547C11.0823 37.5255 10.9314 37.5659 10.8308 37.5558C9.48253 37.4446 8.18459 37.1109 6.98725 36.484C3.22421 34.5224 1.12133 31.4182 0.658498 27.1815C0.477389 25.5131 0.678621 23.865 1.23201 22.2775C1.2622 22.1764 1.3125 22.0752 1.36281 21.9337C1.51374 22.0955 1.64454 22.237 1.77534 22.3786C2.37903 23.0459 2.99279 23.7032 3.57637 24.3806C3.66692 24.4818 3.70717 24.6739 3.67698 24.8053C2.81168 28.0915 3.48581 31.0036 5.81005 33.4809C7.24886 35.0178 9.05995 35.8571 11.1528 36.0492C11.3238 36.0694 11.4949 36.0795 11.6659 36.0998C11.6961 36.1099 11.7062 36.1301 11.7565 36.1503Z" fill="black"/>
<path d="M8.55687 11.5594C10.9717 14.2187 13.3361 16.8274 15.7207 19.4564C15.1271 19.2542 14.5536 19.0115 13.97 18.8598C12.33 18.4351 10.7 18.5261 9.09014 19.0823C8.98952 19.1227 8.79835 19.1025 8.72792 19.0418C7.5809 17.7981 6.44393 16.5443 5.26672 15.2501C6.35338 14.0266 7.44003 12.8132 8.55687 11.5594Z" fill="black"/>
<path d="M12.8732 6.67558C14.151 5.0072 15.1974 3.25792 15.4489 1.10419C16.3344 2.38834 17.7329 9.56744 17.5216 11.7919C16.7268 10.9123 15.9621 10.0629 15.1974 9.22365C14.4327 8.3844 13.668 7.54516 12.8732 6.67558Z" fill="black"/>
<path d="M4.23048 23.4201C3.44567 22.5505 2.68099 21.7213 1.93643 20.8821C1.87606 20.8214 1.85594 20.6596 1.89618 20.5787C2.57031 18.9913 3.48592 17.5554 4.56251 16.1601C5.62904 17.3431 6.68551 18.4958 7.76211 19.6889C6.22268 20.5787 5.05553 21.8123 4.23048 23.4201Z" fill="black"/>
</svg>
