<svg xmlns="http://www.w3.org/2000/svg" viewBox="0 0 48 48"><defs><style>.cls-1{fill:#05cc7f;}</style></defs><g id="Layer_2" data-name="Layer 2"><polygon class="cls-1" points="17.64 39.7 0 39.7 0 12.35 5.92 6.43 21.8 6.43 27.72 12.35 27.72 24.17 25.8 24.17 25.8 13.15 21 8.35 6.72 8.35 1.92 13.15 1.92 37.78 17.64 37.78 17.64 39.7"/><rect class="cls-1" x="5.51" y="15.35" width="1.92" height="18.5"/><rect class="cls-1" x="12.9" y="15.35" width="1.92" height="6.37"/><rect class="cls-1" x="20.29" y="15.35" width="1.92" height="7.45"/><polygon class="cls-1" points="6.06 48 0 48 0 36.63 1.92 36.63 1.92 46.08 4.47 46.08 5.3 41.73 18.68 41.73 18.68 43.65 6.89 43.65 6.06 48"/><path class="cls-1" d="M37.63,37l-4.29-2.37.1-.66a4.62,4.62,0,0,0,.06-.7,4.44,4.44,0,0,0-7.39-3.34l-.51.44-5-2.77-.94-2.24a5.63,5.63,0,0,0-.43-1.54l-.34-.75L23.74,20l2.94,3.2L27.4,23l1.68-4,5.78,1.25-.11,4.35.6.42,4-1.7,3.24,5-3.17,3,.14.75,4,1.65L43.1,36l-1-.23a4.68,4.68,0,0,0-4,.86Zm-2.22-3.41,2.06,1.13A6.41,6.41,0,0,1,39.18,34l-1.32-.54-.5-2.82L40.12,28l-1.49-2.3-3.52,1.49-2.3-1.63.09-3.79-2.67-.58-1.46,3.54-2.8.49-2.56-2.79-2.16,1.37A8.23,8.23,0,0,1,21.51,25l.56,1.28,3.31,1.82a6.36,6.36,0,0,1,10,5.21C35.42,33.37,35.42,33.48,35.41,33.59Z"/><path class="cls-1" d="M29,48l-5.83-1.26.18-4.36-.6-.4-4,1.63-3.21-5,3.19-3-.14-.71-4-1.63.54-2.56.69-.07a5.14,5.14,0,0,0,2.6-1l.5-.41,5.8,3.25-.05.8a4.46,4.46,0,0,0,4.46,4.45A4.4,4.4,0,0,0,31.54,37l.5-.33,4.42,2.48-.06.63a4.65,4.65,0,0,0,1.3,3.78l.83.84L34.34,47l-3-3.17-.75.14Zm-3.84-2.79,2.68.58,1.43-3.49,2.82-.53,2.58,2.78.93-.59a6.52,6.52,0,0,1-1.14-3.78L32.1,38.86a6.24,6.24,0,0,1-3.05.78,6.38,6.38,0,0,1-6.37-6.06L19,31.51a7.19,7.19,0,0,1-1.78.82l3,1.21.53,2.78L18,38.94l1.48,2.29L23,39.81l2.35,1.58Z"/><path class="cls-1" d="M40.83,46.6a6.47,6.47,0,0,1-3.18-.82,6.55,6.55,0,0,1-3.41-5.84L18.8,31.28A6.76,6.76,0,0,1,12,31.6a6.58,6.58,0,0,1-3.36-6.49l.16-1.43,4.63,2.56,1.16-2.11L9.91,21.58l1.13-.9a6.57,6.57,0,0,1,7.28-.61,6.62,6.62,0,0,1,3.1,5.69l15.85,8.72a6.58,6.58,0,0,1,10.1,6.26l-.15,1.43-4.64-2.56-1.16,2.11,4.63,2.56-1.13.89A6.55,6.55,0,0,1,40.83,46.6ZM18.64,29l17.62,9.88-.07.64a4.67,4.67,0,0,0,6.16,4.92l-3.54-2,3-5.46,3.54,2a4.67,4.67,0,0,0-7.44-2.6l-.5.4L19.48,26.88l0-.59c.06-1.6-.47-3.63-2.11-4.54a4.64,4.64,0,0,0-3.78-.32l3.54,1.95-3,5.47-3.55-2a4.69,4.69,0,0,0,2.29,3,4.83,4.83,0,0,0,5.26-.53Z"/></g></svg>