<svg id="Lager_1" data-name="Lager 1" xmlns="http://www.w3.org/2000/svg" viewBox="0 0 48 48"><defs><style>.cls-1{fill:#05cc7f;}</style></defs><path class="cls-1" d="M41,2l5,5V41l-1.66,1.67L41,46H7L3.66,42.64,2,41V7L7,2H41m.83-2H6.2L0,6.2V41.8L6.2,48H41.8L48,41.8V6.2L41.8,0Z"/><polygon class="cls-1" points="34.65 40.18 32.97 39.1 40.57 27.12 32.09 27.12 31.25 25.59 39.82 12.07 41.51 13.14 33.91 25.12 42.38 25.12 43.23 26.66 34.65 40.18"/><path class="cls-1" d="M13.31,39.73H6.5V12.51h6.81Zm-4.81-2h2.81V14.51H8.5Z"/><path class="cls-1" d="M21.34,39.73H14.53V12.51h6.81Zm-4.81-2h2.81V14.51H16.53Z"/><path class="cls-1" d="M29.36,39.73H22.55V12.51h6.81Zm-4.81-2h2.81V14.51H24.55Z"/><rect class="cls-1" x="7.02" y="7.54" width="3.91" height="2"/><rect class="cls-1" x="12.95" y="7.54" width="3.91" height="2"/><rect class="cls-1" x="19" y="7.54" width="22.72" height="2"/></svg>