<svg xmlns="http://www.w3.org/2000/svg" viewBox="0 0 48 48"><defs><style>.cls-1{fill:#05cc7f;}</style></defs><g id="Layer_2" data-name="Layer 2"><path class="cls-1" d="M34.21,42.71H26.68V31.6a6.82,6.82,0,0,1,1.92-5.05,6.08,6.08,0,0,1,4.28-1.69,6.5,6.5,0,0,1,6.55,6.74v1h3.11v6.76h-5V31.6a4.59,4.59,0,0,0-4.64-4.83,4.19,4.19,0,0,0-3,1.15,5,5,0,0,0-1.34,3.68v9.19h5.62Zm5.22-5.26h1.2V34.52h-1.2Z"/><polygon class="cls-1" points="27.27 39.39 23.2 39.38 23.2 32.63 27.27 32.63 27.27 34.54 25.12 34.54 25.12 37.47 27.28 37.48 27.27 39.39"/><path class="cls-1" d="M19.56,37.48l-7.17-1.56.23-5.65-1.07-.72L6.32,31.66,2.37,25.55,6.5,21.67l-.24-1.28L1,18.29,2.55,11l5.7.27.55-.78L6.53,5.29l6.25-4,3.81,4.15,1.28-.23L20,0l7.11,1.54L27,7.18l1.06.75,5.2-2.21,4,6.16-4.1,3.83L33.4,17l5.2,2.13-.66,3.16-1-.36a12.27,12.27,0,0,0-10.68,1.29l-1.42.92-1.15,1.29a12.32,12.32,0,0,0-3.07,8.12c0,.33,0,.66.05,1l0,.23Zm-5.19-3.09,4,.88.32-.78a9.1,9.1,0,0,1,0-.91,14.1,14.1,0,0,1,1.91-7.1,6.62,6.62,0,0,1-.77,0,8.09,8.09,0,1,1,8.09-8.09,7.79,7.79,0,0,1-.24,1.93,14.1,14.1,0,0,1,6.53-.94l-2.5-1L31.09,15l3.7-3.45L32.55,8.11l-4.71,2-2.76-2,.12-5.07-4-.87L19.23,7l-3.34.58L12.45,3.79,8.94,6l2,4.72L9.22,13.28,4.09,13l-.85,4.08L8,19l.63,3.33L4.84,25.85l2.23,3.44,4.71-1.9,2.8,1.89Zm5.45-22.13A6.17,6.17,0,1,0,22.53,24L24,23.25l.92-1.35A6.1,6.1,0,0,0,26,18.43,6.18,6.18,0,0,0,19.82,12.26Z"/><path class="cls-1" d="M33.08,48A14.22,14.22,0,1,1,47.3,33.78,14.24,14.24,0,0,1,33.08,48Zm0-26.52a12.31,12.31,0,1,0,12.3,12.3A12.32,12.32,0,0,0,33.08,21.48Z"/></g></svg>