<svg id="Lager_1" data-name="Lager 1" xmlns="http://www.w3.org/2000/svg" viewBox="0 0 48 48"><defs><style>.cls-1{fill:#05cc7f;}</style></defs><path class="cls-1" d="M16.53,6l.41.4L18.1,7.57v13L16.53,22.1h-13L2,20.53v-13L3.15,6.4,3.56,6h13m.83-2H2.73L0,6.74V21.36L2.73,24.1H17.36l2.74-2.74V6.74L17.36,4Z"/><path class="cls-1" d="M44.44,2l.41.41L46,3.58v13l-1.57,1.57h-13l-1.57-1.57v-13l1.16-1.16L31.48,2h13m.83-2H30.65L27.91,2.75V17.37l2.74,2.74H45.27L48,17.37V2.75L45.27,0Z"/><path class="cls-1" d="M40.29,29.89l1.57,1.57v13L40.7,45.59l-.41.41h-13l-1.57-1.57v-13l.41-.41,1.16-1.16h13m.83-2H26.49l-2.74,2.75V45.26L26.49,48H41.12l2.74-2.74V30.64l-2.74-2.75Z"/><path class="cls-1" d="M16.53,29.89l1.57,1.57v13l-1.16,1.16-.41.41h-13l-.41-.41L2,44.43v-13l1.57-1.57h13m.83-2H2.73L0,30.64V45.26L2.73,48H17.36l2.74-2.74V30.64l-2.74-2.75Z"/><polygon class="cls-1" points="40.83 23.94 26.95 23.94 23.92 20.91 23.92 7.03 26.95 3.99 28.9 3.99 28.9 5.99 27.78 5.99 25.92 7.85 25.92 20.08 27.78 21.94 40 21.94 41.86 20.08 41.86 18.95 43.86 18.95 43.86 20.91 40.83 23.94"/></svg>